<svg width="512" height="512" viewBox="0 0 512 512" fill="none" xmlns="http://www.w3.org/2000/svg">
<rect width="512" height="512" fill="#1A021E"/>
<g filter="url(#filter0_d_701_5)">
<path d="M230.568 201C229.811 191.53 226.259 184.144 219.915 178.841C213.665 173.538 204.148 170.886 191.364 170.886C183.22 170.886 176.544 171.881 171.335 173.869C166.222 175.763 162.434 178.367 159.972 181.682C157.509 184.996 156.231 188.784 156.136 193.045C155.947 196.549 156.563 199.722 157.983 202.562C159.498 205.309 161.866 207.818 165.085 210.091C168.305 212.269 172.424 214.258 177.443 216.057C182.462 217.856 188.428 219.466 195.341 220.886L219.205 226C235.303 229.409 249.081 233.907 260.54 239.494C271.998 245.081 281.373 251.663 288.665 259.239C295.956 266.72 301.307 275.148 304.716 284.523C308.22 293.898 310.019 304.125 310.114 315.205C310.019 334.333 305.237 350.527 295.767 363.784C286.297 377.042 272.756 387.127 255.142 394.04C237.623 400.953 216.553 404.409 191.932 404.409C166.648 404.409 144.583 400.669 125.739 393.188C106.989 385.706 92.4053 374.201 81.9886 358.67C71.6667 343.045 66.4583 323.064 66.3636 298.727H141.364C141.837 307.629 144.063 315.11 148.04 321.17C152.017 327.231 157.604 331.824 164.801 334.949C172.093 338.074 180.758 339.636 190.795 339.636C199.223 339.636 206.278 338.595 211.96 336.511C217.642 334.428 221.951 331.54 224.886 327.847C227.822 324.153 229.337 319.939 229.432 315.205C229.337 310.754 227.869 306.871 225.028 303.557C222.282 300.148 217.737 297.117 211.392 294.466C205.047 291.72 196.477 289.163 185.682 286.795L156.705 280.545C130.947 274.958 110.634 265.631 95.767 252.562C80.9943 239.4 73.6553 221.455 73.75 198.727C73.6553 180.261 78.5795 164.116 88.5227 150.29C98.5606 136.369 112.434 125.527 130.142 117.761C147.945 109.996 168.352 106.114 191.364 106.114C214.848 106.114 235.161 110.044 252.301 117.903C269.441 125.763 282.652 136.843 291.932 151.142C301.307 165.347 306.042 181.966 306.136 201H230.568ZM360.043 110.091H437.884V309.523C437.789 328.462 433.007 345.129 423.537 359.523C414.162 373.822 401.188 384.996 384.616 393.045C368.139 401 349.152 404.977 327.656 404.977C309.001 404.977 291.955 401.758 276.52 395.318C261.084 388.784 248.774 378.557 239.588 364.636C230.402 350.621 225.857 332.439 225.952 310.091H304.929C305.213 317.383 306.444 323.538 308.622 328.557C310.895 333.576 314.02 337.364 317.997 339.92C322.069 342.383 326.993 343.614 332.77 343.614C338.641 343.614 343.565 342.335 347.543 339.778C351.615 337.222 354.692 333.434 356.776 328.415C358.859 323.301 359.948 317.004 360.043 309.523V110.091Z" fill="#FFFBFB"/>
</g>
<defs>
<filter id="filter0_d_701_5" x="54.3636" y="99.1138" width="395.52" height="322.863" filterUnits="userSpaceOnUse" color-interpolation-filters="sRGB">
<feFlood flood-opacity="0" result="BackgroundImageFix"/>
<feColorMatrix in="SourceAlpha" type="matrix" values="0 0 0 0 0 0 0 0 0 0 0 0 0 0 0 0 0 0 127 0" result="hardAlpha"/>
<feOffset dy="5"/>
<feGaussianBlur stdDeviation="6"/>
<feComposite in2="hardAlpha" operator="out"/>
<feColorMatrix type="matrix" values="0 0 0 0 0.602778 0 0 0 0 0.904167 0 0 0 0 0.831833 0 0 0 0.88 0"/>
<feBlend mode="normal" in2="BackgroundImageFix" result="effect1_dropShadow_701_5"/>
<feBlend mode="normal" in="SourceGraphic" in2="effect1_dropShadow_701_5" result="shape"/>
</filter>
</defs>
</svg>